<svg width="36" height="36" viewBox="0 0 36 36" fill="none" xmlns="http://www.w3.org/2000/svg">
<path d="M25.5599 0H10.4759C3.92394 0 0.0179443 3.906 0.0179443 10.458V25.524C0.0179443 32.094 3.92394 36 10.4759 36H25.5419C32.0939 36 35.9999 32.094 35.9999 25.542V10.458C36.0179 3.906 32.1119 0 25.5599 0ZM25.8839 22.734L21.8879 26.73C20.9159 27.702 19.6559 28.17 18.3959 28.17C17.1359 28.17 15.8579 27.684 14.9039 26.73C12.9779 24.804 12.9779 21.654 14.9039 19.728L17.4419 17.19C17.9639 16.668 18.8279 16.668 19.3499 17.19C19.8719 17.712 19.8719 18.576 19.3499 19.098L16.8119 21.636C15.9299 22.518 15.9299 23.94 16.8119 24.822C17.6939 25.704 19.1159 25.704 19.9979 24.822L23.9939 20.826C25.0919 19.728 25.7039 18.252 25.7039 16.686C25.7039 15.12 25.0919 13.662 23.9939 12.546C21.7799 10.332 17.9279 10.332 15.7139 12.546L11.3399 16.92C9.46795 18.792 9.46795 21.852 11.3399 23.742C11.8619 24.264 11.8619 25.128 11.3399 25.65C10.8179 26.172 9.95395 26.172 9.43194 25.65C6.49794 22.716 6.49794 17.946 9.43194 15.012L13.7879 10.656C15.4079 9.036 17.5499 8.154 19.8359 8.154C22.1219 8.154 24.2639 9.036 25.8839 10.656C27.5039 12.276 28.3859 14.418 28.3859 16.704C28.3859 18.99 27.5039 21.132 25.8839 22.734Z" fill="white"/>
</svg>
