<svg width="50" height="50" viewBox="0 0 50 50" fill="none" xmlns="http://www.w3.org/2000/svg">
<path d="M25.0005 2.41996e-08C21.1658 -0.000168689 17.3825 0.881832 13.9432 2.57777C10.5039 4.27371 7.50085 6.73812 5.16636 9.78035C2.83188 12.8226 1.22855 16.3611 0.480399 20.1221C-0.267747 23.8831 -0.14065 27.7658 0.851858 31.4699C1.84437 35.1739 3.67568 38.6 6.20412 41.483C8.73256 44.3661 11.8904 46.6288 15.4332 48.0962C18.976 49.5636 22.809 50.1963 26.6355 49.9453C30.462 49.6944 34.1794 48.5665 37.5003 46.649C37.799 46.4927 38.0631 46.2776 38.2766 46.0166C38.49 45.7556 38.6485 45.4542 38.7424 45.1303C38.8364 44.8065 38.8638 44.4671 38.8232 44.1324C38.7825 43.7977 38.6746 43.4746 38.5059 43.1827C38.3371 42.8908 38.1111 42.6361 37.8414 42.4338C37.5716 42.2315 37.2637 42.0859 36.9363 42.0056C36.6088 41.9254 36.2684 41.9123 35.9357 41.967C35.6031 42.0217 35.2849 42.1432 35.0003 42.3241C31.1877 44.5253 26.7554 45.407 22.3906 44.8325C18.0259 44.258 13.9727 42.2593 10.8595 39.1466C7.74638 36.0338 5.7473 31.9808 5.17231 27.6161C4.59731 23.2514 5.47853 18.8189 7.6793 15.0061C9.88007 11.1933 13.2774 8.21313 17.3445 6.52783C21.4115 4.84254 25.921 4.54627 30.1736 5.68498C34.4261 6.82369 38.1842 9.33374 40.8649 12.8259C43.5456 16.318 44.9991 20.5971 45.0001 24.9994V26.8744C45.0001 28.0347 44.5392 29.1475 43.7187 29.9679C42.8983 30.7884 41.7855 31.2493 40.6252 31.2493C39.4649 31.2493 38.3521 30.7884 37.5317 29.9679C36.7112 29.1475 36.2503 28.0347 36.2503 26.8744V16.2496C36.2503 15.5866 35.9869 14.9507 35.5181 14.4819C35.0493 14.0131 34.4134 13.7497 33.7504 13.7497C33.169 13.7368 32.6013 13.9269 32.145 14.2874C31.6887 14.6478 31.3724 15.1561 31.2504 15.7247C29.4127 14.4536 27.2349 13.7654 25.0005 13.7497C23.1185 13.7272 21.2609 14.1772 19.5979 15.0587C17.9348 15.9401 16.5195 17.2246 15.4815 18.7948C14.4436 20.3649 13.8161 22.1703 13.6567 24.0457C13.4973 25.9211 13.8109 27.8066 14.5689 29.5294C15.327 31.2521 16.5051 32.7572 17.9955 33.9067C19.4859 35.0562 21.2409 35.8134 23.0997 36.1089C24.9586 36.4044 26.8618 36.2288 28.6352 35.5982C30.4086 34.9675 31.9954 33.9021 33.2504 32.4993C34.4382 34.0375 36.0759 35.1674 37.9356 35.7318C39.7954 36.2961 41.7848 36.2669 43.6271 35.6482C45.4695 35.0295 47.0733 33.852 48.2155 32.2796C49.3576 30.7071 49.9814 28.8178 50 26.8744V24.9994C50 21.7165 49.3534 18.4656 48.097 15.4326C46.8407 12.3995 44.9992 9.64358 42.6778 7.32217C40.3564 5.00076 37.6005 3.15931 34.5674 1.90297C31.5344 0.64663 28.2835 2.41996e-08 25.0005 2.41996e-08ZM25.0005 31.2493C23.7644 31.2493 22.5561 30.8828 21.5283 30.196C20.5005 29.5093 19.6995 28.5332 19.2264 27.3912C18.7534 26.2492 18.6296 24.9925 18.8708 23.7802C19.1119 22.5678 19.7072 21.4542 20.5812 20.5801C21.4553 19.7061 22.5689 19.1108 23.7813 18.8697C24.9936 18.6285 26.2503 18.7523 27.3923 19.2253C28.5343 19.6984 29.5104 20.4994 30.1971 21.5272C30.8839 22.555 31.2504 23.7633 31.2504 24.9994C31.2504 26.657 30.5919 28.2467 29.4199 29.4188C28.2478 30.5908 26.6581 31.2493 25.0005 31.2493Z" fill="#2C363F"/>
</svg>
