<svg width="37" height="36" viewBox="0 0 37 36" fill="none" xmlns="http://www.w3.org/2000/svg">
<g clip-path="url(#clip0_114_98)">
<path fill-rule="evenodd" clip-rule="evenodd" d="M36.0179 36H28.8179V23.4018C28.8179 19.9458 27.2933 18.0176 24.5591 18.0176C21.5837 18.0176 19.8179 20.0268 19.8179 23.4018V36H12.6179V12.6H19.8179V15.2314C19.8179 15.2314 22.0769 11.2676 27.1673 11.2676C32.2595 11.2676 36.0179 14.375 36.0179 20.8046V36ZM4.41355 8.85762C1.98535 8.85762 0.0179443 6.87413 0.0179443 4.42793C0.0179443 1.98353 1.98535 0 4.41355 0C6.83995 0 8.80734 1.98353 8.80734 4.42793C8.80914 6.87413 6.83995 8.85762 4.41355 8.85762ZM0.0179443 36H9.01794V12.6H0.0179443V36Z" fill="white"/>
</g>
<defs>
<clipPath id="clip0_114_98">
<rect width="36" height="36" fill="white" transform="translate(0.0179443)"/>
</clipPath>
</defs>
</svg>
