<svg width="37" height="36" viewBox="0 0 37 36" fill="none" xmlns="http://www.w3.org/2000/svg">
<g clip-path="url(#clip0_114_103)">
<path d="M33.391 11.5962C33.2822 11.4737 33.2141 11.2831 33.2277 11.1198C33.3502 8.38409 32.9827 5.73002 32.0572 3.14401C31.9347 2.81736 31.785 2.69487 31.4447 2.79014C30.6825 3.02152 29.8931 3.19846 29.1445 3.47067C27.0757 4.21925 25.1839 5.3081 23.3464 6.49222C23.1559 6.61471 22.8701 6.69638 22.6387 6.65555C19.6307 6.12473 16.6092 6.15195 13.5876 6.61471C13.2882 6.65554 12.9071 6.58749 12.6621 6.43778C10.5253 5.0495 8.34757 3.68844 5.85683 3.03513C3.80163 2.49071 4.22356 2.38182 3.6383 4.24647C2.94416 6.47861 2.67195 8.79241 2.82167 11.1334C2.83528 11.2968 2.71278 11.5009 2.6039 11.6506C1.7056 12.7259 1.01146 13.91 0.589534 15.2438C-0.227101 17.8298 -0.0637739 20.4431 0.453428 23.0427C1.47422 28.1467 4.9177 31.7262 10.0081 32.6109C12.6349 33.0737 15.3434 33.1145 17.8069 33.3187C20.5563 33.1145 23.1014 33.1009 25.5786 32.7062C29.9067 32.0121 33.1733 29.7119 34.8065 25.5334C35.3782 24.0771 35.6912 22.4847 35.8818 20.9331C36.3173 17.5168 35.7321 14.3047 33.391 11.5962ZM30.982 25.8056C30.5328 27.9289 29.2943 29.3852 27.2255 30.1338C25.2247 30.8688 23.1559 31.1682 21.0462 31.3043C20.0254 31.3724 19.0047 31.3179 17.9839 31.3179C15.2345 31.3724 12.4852 31.2635 9.83112 30.4741C6.49653 29.4805 4.99936 27.4934 4.90409 24.009C4.86326 22.7705 4.99936 21.5728 5.58462 20.4567C6.74152 18.2109 8.74227 17.4215 11.1105 17.3807C12.4035 17.3671 13.7101 17.476 15.0168 17.5985C17.7525 17.8434 20.461 17.5848 23.1831 17.4351C24.3808 17.3671 25.6058 17.3399 26.7763 17.544C29.2943 17.9796 31.1997 20.4839 31.2406 23.3013C31.2406 24.1315 31.1453 24.989 30.982 25.8056Z" fill="white"/>
<path d="M10.2939 21.1372C9.54528 21.913 9.28668 22.893 9.24585 23.7641C9.24585 25.0707 9.62695 26.1187 10.2939 26.7992C11.2194 27.7384 12.4852 27.7111 13.3699 26.7584C14.7037 25.3157 14.6901 22.6072 13.3699 21.178C12.4852 20.2117 11.1922 20.1981 10.2939 21.1372Z" fill="white"/>
<path d="M22.8292 21.0283C21.3048 22.4302 21.3048 25.5198 22.8292 26.9081C23.7139 27.7111 24.9116 27.6703 25.7419 26.8128C26.5041 26.0234 26.7763 25.0298 26.8035 23.9546C26.7763 22.8794 26.5041 21.8994 25.7283 21.11C24.898 20.2525 23.7003 20.2253 22.8292 21.0283Z" fill="white"/>
</g>
<defs>
<clipPath id="clip0_114_103">
<rect width="36" height="36" fill="white" transform="translate(0.0179443)"/>
</clipPath>
</defs>
</svg>
