<svg width="25" height="25" viewBox="0 0 25 25" fill="none" xmlns="http://www.w3.org/2000/svg">
<path d="M22.9228 9.14546L5.42379 0.392949C4.7332 0.0491116 3.95339 -0.0732967 3.19071 0.0424129C2.42802 0.158123 1.71957 0.506319 1.16194 1.03953C0.60431 1.57274 0.224642 2.26501 0.0747004 3.02197C-0.0752415 3.77892 0.0118396 4.56371 0.324071 5.26935L3.32391 11.9838C3.39197 12.1461 3.42703 12.3204 3.42703 12.4964C3.42703 12.6725 3.39197 12.8467 3.32391 13.0091L0.324071 19.7235C0.0699599 20.2945 -0.0374648 20.9201 0.0115593 21.5432C0.0605834 22.1664 0.264502 22.7674 0.604783 23.2916C0.945064 23.8159 1.41092 24.2468 1.96001 24.5451C2.5091 24.8435 3.12402 24.9998 3.74888 25C4.33414 24.9942 4.91068 24.8575 5.43629 24.5999L22.9353 15.8474C23.5561 15.535 24.0778 15.0563 24.4424 14.4646C24.8069 13.8729 25 13.1915 25 12.4964C25 11.8014 24.8069 11.12 24.4424 10.5283C24.0778 9.93655 23.5561 9.45782 22.9353 9.14546H22.9228ZM21.8104 13.6092L4.31135 22.3617C4.08157 22.4721 3.82354 22.5096 3.57188 22.4691C3.32021 22.4286 3.08693 22.3121 2.90332 22.1352C2.71971 21.9584 2.59455 21.7296 2.54461 21.4795C2.49468 21.2295 2.52236 20.9701 2.62395 20.7363L5.61128 14.0219C5.64996 13.9322 5.68334 13.8403 5.71128 13.7468H14.3233C14.6548 13.7468 14.9727 13.615 15.2071 13.3806C15.4416 13.1461 15.5732 12.828 15.5732 12.4964C15.5732 12.1648 15.4416 11.8468 15.2071 11.6123C14.9727 11.3778 14.6548 11.2461 14.3233 11.2461H5.71128C5.68334 11.1525 5.64996 11.0606 5.61128 10.971L2.62395 4.25656C2.52236 4.02269 2.49468 3.76335 2.54461 3.5133C2.59455 3.26326 2.71971 3.03446 2.90332 2.85759C3.08693 2.68072 3.32021 2.56423 3.57188 2.52375C3.82354 2.48327 4.08157 2.52072 4.31135 2.63109L21.8104 11.3836C22.0151 11.4885 22.187 11.6479 22.3069 11.8443C22.4269 12.0406 22.4904 12.2663 22.4904 12.4964C22.4904 12.7265 22.4269 12.9522 22.3069 13.1485C22.187 13.3449 22.0151 13.5043 21.8104 13.6092Z" fill="#FFEEDB"/>
</svg>
