<svg width="50" height="50" viewBox="0 0 50 50" fill="none" xmlns="http://www.w3.org/2000/svg">
<path d="M36.6718 30.025C36.1695 29.7753 32.9042 28.2772 32.4018 28.0275C31.8995 27.7778 31.3971 27.7778 30.8948 28.2772C30.3924 28.7765 29.3877 30.2747 28.8853 30.774C28.6342 31.2734 28.1318 31.2734 27.6295 31.0237C25.8712 30.2747 24.113 29.2759 22.6059 28.0275C21.35 26.779 20.0942 25.2809 19.0894 23.7828C18.8383 23.2834 19.0894 22.784 19.3406 22.5343C19.5918 22.2846 19.843 21.7853 20.3453 21.5356C20.5965 21.2859 20.8477 20.7865 20.8477 20.5368C21.0989 20.2871 21.0989 19.7878 20.8477 19.5381C20.5965 19.2884 19.3406 16.2921 18.8383 15.0437C18.5871 13.2959 18.0847 13.2959 17.5824 13.2959H16.3265C15.8241 13.2959 15.0706 13.7953 14.8194 14.0449C13.3124 15.5431 12.5588 17.2909 12.5588 19.2884C12.81 21.5356 13.5636 23.7828 15.0706 25.7803C17.8336 29.7753 21.35 33.0212 25.62 35.0187C26.8759 35.5181 27.8806 36.0175 29.1365 36.2672C30.3924 36.7665 31.6483 36.7665 33.1554 36.5169C34.9136 36.2672 36.4207 35.0187 37.4254 33.5206C37.9277 32.5218 37.9277 31.5231 37.6765 30.5243L36.6718 30.025ZM42.9513 7.30337C33.1554 -2.43446 17.3312 -2.43446 7.53531 7.30337C-0.502354 15.2934 -2.00942 27.5281 3.51648 37.2659L0 50L13.3124 46.5044C17.08 48.5019 21.0989 49.5006 25.1177 49.5006C38.9324 49.5006 49.9842 38.5144 49.9842 24.7815C50.2354 18.2896 47.4724 12.0474 42.9513 7.30337ZM36.1695 42.2597C32.9042 44.2572 29.1365 45.5056 25.1177 45.5056C21.35 45.5056 17.8336 44.5069 14.5683 42.7591L13.8147 42.2597L6.02825 44.2572L8.03766 36.7665L7.53531 36.0175C1.50706 26.03 4.52118 13.5456 14.3171 7.30337C24.113 1.06117 36.6718 4.30712 42.7001 13.7953C48.7283 23.5331 45.9654 36.2672 36.1695 42.2597Z" fill="#2C363F"/>
</svg>
